HIERARCHY
ROOT joint_Root
{
	OFFSET 0.0 0.0 0.0
	CHANNELS 6 Xposition Yposition Zposition Zrotation Xrotation Yrotation 
	JOINT Hips
	{
		OFFSET 4.5925 91.4895 -427.239
		CHANNELS 6 Xposition Yposition Zposition Zrotation Xrotation Yrotation 
		JOINT Spine
		{
			OFFSET 15.7357 0.0 0.0
			CHANNELS 6 Xposition Yposition Zposition Zrotation Xrotation Yrotation 
			JOINT Chest
			{
				OFFSET 8.98455 -0.406207 0.0
				CHANNELS 6 Xposition Yposition Zposition Zrotation Xrotation Yrotation 
				JOINT Neck
				{
					OFFSET 16.3773 0.0 0.0
					CHANNELS 6 Xposition Yposition Zposition Zrotation Xrotation Yrotation 
					JOINT Head
					{
						OFFSET 6.45672 0.0 0.0
						CHANNELS 6 Xposition Yposition Zposition Zrotation Xrotation Yrotation 
						End Site
						{
							OFFSET 0.0 0.0 0.0
						}
					}
				}
				JOINT Shoulder_L
				{
					OFFSET 12.9942 -0.242716 4.98039
					CHANNELS 6 Xposition Yposition Zposition Zrotation Xrotation Yrotation 
					JOINT UpperArm_L
					{
						OFFSET 5.34809 0.0 0.0
						CHANNELS 6 Xposition Yposition Zposition Zrotation Xrotation Yrotation 
						JOINT LowerArm_L
						{
							OFFSET 24.3286 1.87007e-05 0.0
							CHANNELS 6 Xposition Yposition Zposition Zrotation Xrotation Yrotation 
							JOINT Hand_L
							{
								OFFSET 22.2916 0.0 0.0
								CHANNELS 6 Xposition Yposition Zposition Zrotation Xrotation Yrotation 
								End Site
								{
									OFFSET 0.0 0.0 0.0
								}
							}
						}
					}
				}
				JOINT Shoulder_R
				{
					OFFSET 12.9945 -0.242716 -4.98039
					CHANNELS 6 Xposition Yposition Zposition Zrotation Xrotation Yrotation 
					JOINT UpperArm_R
					{
						OFFSET -5.34813 0.0 0.0
						CHANNELS 6 Xposition Yposition Zposition Zrotation Xrotation Yrotation 
						JOINT LowerArm_R
						{
							OFFSET -24.3289 0.000322201 0.0
							CHANNELS 6 Xposition Yposition Zposition Zrotation Xrotation Yrotation 
							JOINT Hand_R
							{
								OFFSET -22.2915 -0.000108084 0.0
								CHANNELS 6 Xposition Yposition Zposition Zrotation Xrotation Yrotation 
								End Site
								{
									OFFSET 0.0 0.0 0.0
								}
							}
						}
					}
				}
			}
		}
		JOINT UpperLeg_L
		{
			OFFSET -2.19248 -6.46944 0.0
			CHANNELS 6 Xposition Yposition Zposition Zrotation Xrotation Yrotation 
			JOINT LowerLeg_L
			{
				OFFSET 39.0811 0.0 -1.23785e-05
				CHANNELS 6 Xposition Yposition Zposition Zrotation Xrotation Yrotation 
				JOINT Foot_L
				{
					OFFSET 40.9854 0.0 -1.26872e-05
					CHANNELS 6 Xposition Yposition Zposition Zrotation Xrotation Yrotation 
					JOINT Toes_L
					{
						OFFSET 11.7543 0.0 0.0
						CHANNELS 6 Xposition Yposition Zposition Zrotation Xrotation Yrotation 
						End Site
						{
							OFFSET 0.0 0.0 0.0
						}
					}
				}
			}
		}
		JOINT UpperLeg_R
		{
			OFFSET -2.19251 6.46944 0.0
			CHANNELS 6 Xposition Yposition Zposition Zrotation Xrotation Yrotation 
			JOINT LowerLeg_R
			{
				OFFSET -39.0811 -0.00228153 -0.0401928
				CHANNELS 6 Xposition Yposition Zposition Zrotation Xrotation Yrotation 
				JOINT Foot_R
				{
					OFFSET -40.9854 0.0 0.0
					CHANNELS 6 Xposition Yposition Zposition Zrotation Xrotation Yrotation 
					JOINT Toes_R
					{
						OFFSET -11.7543 0.0 0.0
						CHANNELS 6 Xposition Yposition Zposition Zrotation Xrotation Yrotation 
						End Site
						{
							OFFSET 0.0 0.0 0.0
						}
					}
				}
			}
		}
	}
}
MOTION
Frames:	6
Frame Time:	0.0333333
0.000000 0.000000 0.000000 0.000000 0.000000 -0.000000 1.393780 82.321900 0.322775 89.228200 -7.520880 12.777300 15.735700 0.000005 -0.000001 91.694900 81.073400 -91.870300 8.984550 -0.406207 -0.000000 10.080400 0.521138 -0.396529 16.377300 -0.000001 -0.000001 -1.970380 -4.662870 1.682470 6.456720 -0.000001 -0.000000 -5.653340 -6.439750 5.530250 12.994200 -0.242716 4.980390 -91.419900 4.352890 -71.914700 5.348090 -0.000007 -0.000001 -62.332400 24.587400 -14.383400 24.328600 0.000019 0.000005 10.017100 20.112300 -27.188900 22.291600 -0.000001 0.000005 9.242450 5.341650 -1.152260 12.994500 -0.242716 -4.980390 88.340700 8.782050 -79.256300 -5.348130 -0.000001 -0.000004 -59.179200 35.227900 -13.574100 -24.328900 0.000322 -0.000009 -0.235709 -0.559493 -22.739500 -22.291500 -0.000108 -0.000004 19.994600 5.427620 -3.857280 -2.192480 -6.469440 -0.000000 -174.208000 -16.063400 -10.821200 39.081100 -0.000007 -0.000012 -0.401832 0.219603 61.344200 40.985400 -0.000006 -0.000013 2.071180 2.837650 -87.283700 11.754300 -0.000000 0.000003 -0.000406 -0.003349 -16.701000 -2.192510 6.469440 -0.000001 174.627000 10.699900 167.064000 -39.081100 -0.002282 -0.040193 0.063335 -0.032141 61.881000 -40.985400 0.000008 0.000006 6.176310 6.904480 -85.681200 -11.754300 -0.000006 -0.000006 -0.536255 -0.658647 -17.111700
0.000000 0.000000 0.000000 0.000000 0.000000 -0.000000 1.752510 83.873800 0.984684 89.477700 -9.325080 12.433000 15.735700 0.000005 -0.000001 89.634900 81.868700 -89.316100 8.984550 -0.406207 -0.000000 8.496570 -0.101091 0.644554 16.377300 -0.000001 -0.000001 -0.942330 -3.416590 1.388070 6.456720 -0.000001 -0.000000 -5.208750 -4.302860 4.051990 12.994200 -0.242716 4.980390 -91.066200 3.181020 -71.458200 5.348090 -0.000007 -0.000001 -57.075000 20.563000 -16.204400 24.328600 0.000019 0.000005 11.270900 22.564200 -27.445900 22.291600 -0.000001 0.000005 7.293730 5.378770 -2.266590 12.994500 -0.242716 -4.980390 88.247400 8.691190 -78.552800 -5.348130 -0.000001 -0.000004 -60.101200 34.048200 -13.011500 -24.328900 0.000322 -0.000009 -0.003092 -0.005375 -20.759000 -22.291500 -0.000108 -0.000004 20.257700 5.415740 -3.456040 -2.192480 -6.469440 -0.000000 -174.721000 -16.779500 -8.120950 39.081100 -0.000007 -0.000012 -0.412753 0.273540 56.467600 40.985400 -0.000006 -0.000013 1.596550 1.810450 -85.462200 11.754300 -0.000000 0.000003 -0.000331 -0.002821 -16.682300 -2.192510 6.469440 -0.000001 174.481000 9.037290 168.974000 -39.081100 -0.002282 -0.040193 0.046451 -0.027617 57.431800 -40.985400 0.000008 0.000006 5.700950 7.490170 -83.515500 -11.754300 -0.000006 -0.000006 -0.514818 -0.632434 -17.273900
0.000000 0.000000 0.000000 0.000000 0.000000 -0.000000 2.008330 85.970300 1.573700 89.670100 -10.889800 11.359800 15.735700 0.000005 -0.000001 88.580200 83.003500 -87.729800 8.984550 -0.406207 -0.000000 6.225950 -0.357148 1.718240 16.377300 -0.000001 -0.000001 0.525792 -2.418680 0.804441 6.456720 -0.000001 -0.000000 -4.250990 -2.497220 2.382160 12.994200 -0.242716 4.980390 -90.491300 1.428450 -71.019600 5.348090 -0.000007 -0.000001 -50.088500 9.464110 -20.897400 24.328600 0.000019 0.000005 9.595210 18.642600 -27.872500 22.291600 -0.000001 0.000005 9.788500 5.313250 -0.304352 12.994500 -0.242716 -4.980390 88.257200 8.134620 -77.863800 -5.348130 -0.000001 -0.000004 -62.240700 31.590200 -9.873100 -24.328900 0.000322 -0.000009 -0.390617 -0.988937 -21.495200 -22.291500 -0.000108 -0.000004 20.466400 5.430180 -3.946560 -2.192480 -6.469440 -0.000000 -175.370000 -17.506700 -5.286360 39.081100 -0.000007 -0.000012 -0.342929 0.293582 49.433900 40.985400 -0.000006 -0.000013 1.217120 1.058640 -82.402900 11.754300 -0.000000 0.000003 -0.000300 -0.002601 -16.674400 -2.192510 6.469440 -0.000001 174.427000 8.074430 171.104000 -39.081100 -0.002282 -0.040193 0.030946 -0.022455 50.971700 -40.985400 0.000008 0.000006 5.219760 8.433250 -80.119200 -11.754300 -0.000006 -0.000006 -0.442393 -0.545814 -17.633000
0.000000 0.000000 0.000000 0.000000 0.000000 -0.000000 2.062120 87.894800 1.901840 89.481900 -11.730600 9.409860 15.735700 0.000005 -0.000001 88.350300 84.416900 -87.017100 8.984550 -0.406207 -0.000000 3.401280 -0.371833 2.674430 16.377300 -0.000001 -0.000001 1.935260 -2.210790 0.636117 6.456720 -0.000001 -0.000000 -2.923630 -1.785930 1.317760 12.994200 -0.242716 4.980390 -89.868400 -0.388128 -71.249500 5.348090 -0.000007 -0.000001 -43.001300 -6.104980 -28.594100 24.328600 0.000019 0.000005 6.465730 11.632900 -29.343100 22.291600 -0.000001 0.000005 12.236700 5.279700 0.633129 12.994500 -0.242716 -4.980390 88.241900 7.488690 -76.747700 -5.348130 -0.000001 -0.000004 -63.471900 30.133200 -6.403300 -24.328900 0.000322 -0.000009 -1.028410 -2.412030 -23.077700 -22.291500 -0.000108 -0.000004 19.076700 5.459340 -4.977630 -2.192480 -6.469440 -0.000000 -175.719000 -18.118800 -3.516250 39.081100 -0.000007 -0.000012 -0.290923 0.319107 42.355300 40.985400 -0.000006 -0.000013 1.056520 0.977199 -79.059600 11.754300 -0.000000 0.000003 -0.000206 -0.001898 -16.649100 -2.192510 6.469440 -0.000001 174.644000 8.812040 172.583000 -39.081100 -0.002282 -0.040193 0.020435 -0.017653 44.202400 -40.985400 0.000008 0.000006 5.044640 10.100400 -76.588900 -11.754300 -0.000006 -0.000006 -0.181079 -0.242503 -18.075000
0.000000 0.000000 0.000000 0.000000 0.000000 -0.000000 2.068060 89.237300 1.914390 89.018200 -12.090000 7.425470 15.735700 0.000005 -0.000001 84.982500 85.485700 -83.353500 8.984550 -0.406207 -0.000000 1.242700 -0.881970 3.264800 16.377300 -0.000001 -0.000001 2.269650 -2.273740 1.004210 6.456720 -0.000001 -0.000000 -2.097290 -1.308710 0.831980 12.994200 -0.242716 4.980390 -89.023100 -3.109510 -72.545900 5.348090 -0.000007 -0.000001 -35.720100 -22.286700 -35.880100 24.328600 0.000019 0.000005 5.750600 8.313170 -34.853900 22.291600 -0.000001 0.000005 17.725900 5.302910 -0.003942 12.994500 -0.242716 -4.980390 88.270100 6.908270 -75.905200 -5.348130 -0.000001 -0.000004 -63.381900 30.128800 -4.980650 -24.328900 0.000322 -0.000009 -0.967994 -2.187260 -23.856600 -22.291500 -0.000108 -0.000004 17.669300 5.466230 -5.229720 -2.192480 -6.469440 -0.000000 -175.836000 -18.449200 -2.883680 39.081100 -0.000007 -0.000012 -0.232030 0.307788 37.011700 40.985400 -0.000006 -0.000013 0.979077 1.083790 -76.313200 11.754300 -0.000000 0.000003 -0.000155 -0.001491 -16.634200 -2.192510 6.469440 -0.000001 174.873000 11.300100 173.418000 -39.081100 -0.002282 -0.040193 0.011399 -0.010138 38.680800 -40.985400 0.000008 0.000006 5.061170 12.919400 -73.725400 -11.754300 -0.000006 -0.000006 -0.003170 -0.042508 -18.301900
0.000000 0.000000 0.000000 0.000000 0.000000 -0.000000 2.195290 89.996700 1.842540 88.434500 -12.709300 5.866600 15.735700 0.000005 -0.000001 75.967400 86.026100 -73.963000 8.984550 -0.406207 -0.000000 -0.015871 -2.062680 4.006380 16.377300 -0.000001 -0.000001 1.766280 -1.668410 0.889324 6.456720 -0.000001 -0.000000 -2.057250 -0.863380 1.395750 12.994200 -0.242716 4.980390 -87.878500 -6.942890 -72.962000 5.348090 -0.000007 -0.000001 -27.772300 -36.893600 -39.783000 24.328600 0.000019 0.000005 9.203340 9.823790 -43.518700 22.291600 -0.000001 0.000005 21.488500 5.331570 -0.829962 12.994500 -0.242716 -4.980390 88.355100 6.625120 -76.023000 -5.348130 -0.000001 -0.000004 -61.241100 30.272500 -5.251930 -24.328900 0.000322 -0.000009 -0.453291 -0.993456 -24.478500 -22.291500 -0.000108 -0.000004 17.172000 5.445830 -4.491590 -2.192480 -6.469440 -0.000000 -176.075000 -17.807500 -2.934510 39.081100 -0.000007 -0.000012 -0.199695 0.298096 33.818500 40.985400 -0.000006 -0.000013 0.681359 0.011711 -74.652100 11.754300 -0.000000 0.000003 -0.000166 -0.001583 -16.637600 -2.192510 6.469440 -0.000001 175.098000 14.163100 173.794000 -39.081100 -0.002282 -0.040193 0.005014 -0.002469 34.912400 -40.985400 0.000008 0.000006 5.363860 16.235800 -71.994100 -11.754300 -0.000006 -0.000006 -0.003627 -0.047505 -18.505300
